# xmcd
# Copyright (C) 1995-1998 Ti Kan
#
# Track frame offsets:
#       150
#       1463
#       2663
#       3863
#
# Disc length: 62 seconds
#
# Revision: 0
# Processed by: cddbd v1.5.2PL0 Copyright (c) Steve Scherf et al.
# Submitted via: CD-Import v1.0
#
DISCID=1a003c04
DTITLE=Jingles - Tinnitus
DYEAR=2009
DGENRE=
TTITLE0=Kurz Tinnitus
TTITLE1=2 Tinnitus
TTITLE2=3 Tinnitus
TTITLE3=4 Tinnitus
EXTD=
EXTT0=
EXTT1=
EXTT2=
EXTT3=
PLAYORDER=
